<?xml version="1.0" encoding="iso-8859-1"?>
<!-- Generator: Adobe Illustrator 19.0.0, SVG Export Plug-In . SVG Version: 6.00 Build 0)  -->
<svg version="1.1" id="Capa_1" xmlns="http://www.w3.org/2000/svg" xmlns:xlink="http://www.w3.org/1999/xlink" x="0px" y="0px"
	 viewBox="0 0 469.333 469.333" style="enable-background:new 0 0 469.333 469.333;" xml:space="preserve">
<g>
	<g>
		<g>
			<path d="M68.693,85.333L42.667,111.36l43.52,43.52C73.067,162.133,64,176,64,192v213.333C64,428.8,83.2,448,106.667,448h256
				c5.013,0,9.707-0.96,14.08-2.56l23.893,23.893l26.027-26.027L68.693,85.333z"/>
			<path d="M168.533,106.667c0-36.48,29.653-66.133,66.133-66.133S300.8,70.187,300.8,106.667v42.667H184.64l220.693,220.693V192
				c0-23.467-19.2-42.667-42.667-42.667h-21.333v-42.667C341.333,47.787,293.547,0,234.667,0C180.16,0,135.68,41.173,129.28,93.973
				l39.253,39.253V106.667z"/>
		</g>
	</g>
</g>
<g>
</g>
<g>
</g>
<g>
</g>
<g>
</g>
<g>
</g>
<g>
</g>
<g>
</g>
<g>
</g>
<g>
</g>
<g>
</g>
<g>
</g>
<g>
</g>
<g>
</g>
<g>
</g>
<g>
</g>
</svg>
