<?xml version="1.0" encoding="iso-8859-1"?>
<!-- Generator: Adobe Illustrator 19.0.0, SVG Export Plug-In . SVG Version: 6.00 Build 0)  -->
<svg version="1.1" id="Capa_1" xmlns="http://www.w3.org/2000/svg" xmlns:xlink="http://www.w3.org/1999/xlink" x="0px" y="0px"
	 viewBox="0 0 448 448" style="enable-background:new 0 0 448 448;" xml:space="preserve">
<g>
	<g>
		<path d="M352,149.333h-21.333v-42.667C330.667,47.787,282.88,0,224,0S117.333,47.787,117.333,106.667v42.667H96
			c-23.467,0-42.667,19.2-42.667,42.667v213.333C53.333,428.8,72.533,448,96,448h256c23.467,0,42.667-19.2,42.667-42.667V192
			C394.667,168.533,375.467,149.333,352,149.333z M157.867,106.667c0-36.48,29.653-66.133,66.133-66.133
			s66.133,29.653,66.133,66.133v42.667H157.867V106.667z M309.333,320h-64v64h-42.667v-64h-64v-42.667h64v-64h42.667v64h64V320z"/>
	</g>
</g>
<g>
</g>
<g>
</g>
<g>
</g>
<g>
</g>
<g>
</g>
<g>
</g>
<g>
</g>
<g>
</g>
<g>
</g>
<g>
</g>
<g>
</g>
<g>
</g>
<g>
</g>
<g>
</g>
<g>
</g>
</svg>
